<?xml version="1.0" encoding="UTF-8" standalone="no"?>
<svg
   width="190"
   height="40"
   viewBox="0 0 190 40"
   version="1.1"
   id="svg251"
   sodipodi:docname="brainwave.svg"
   inkscape:version="1.2.2 (732a01da63, 2022-12-09)"
   xmlns:inkscape="http://www.inkscape.org/namespaces/inkscape"
   xmlns:sodipodi="http://sodipodi.sourceforge.net/DTD/sodipodi-0.dtd"
   xmlns="http://www.w3.org/2000/svg"
   xmlns:svg="http://www.w3.org/2000/svg">
  <defs
     id="defs255" />
  <sodipodi:namedview
     id="namedview253"
     pagecolor="#ffffff"
     bordercolor="#000000"
     borderopacity="0.25"
     inkscape:showpageshadow="2"
     inkscape:pageopacity="0.0"
     inkscape:pagecheckerboard="0"
     inkscape:deskcolor="#d1d1d1"
     showgrid="false"
     inkscape:zoom="2.2013351"
     inkscape:cx="81.768559"
     inkscape:cy="20.44214"
     inkscape:window-width="1366"
     inkscape:window-height="697"
     inkscape:window-x="-8"
     inkscape:window-y="-8"
     inkscape:window-maximized="1"
     inkscape:current-layer="g249" />
  <g
     fill="none"
     fill-rule="evenodd"
     id="g249">
    <polygon
       fill="#AC6AFF"
       fill-rule="nonzero"
       points="35.213 11.501 35.206 6.288 25.586 0 25.586 4.022 31.931 8.2 31.936 11.402 28.988 13.398 26.977 11.931 26.977 9.446 23.7 7.204 23.7 11.727 18.505 14.915 18.495 23.335 14.822 25.403 12.937 23.926 12.937 21.488 15.169 19.959 15.169 19.939 15.169 16.166 11.152 18.854 8.081 16.856 5.276 18.693 9.659 21.694 9.659 23.536 6.5 25.674 3.277 23.492 3.277 16.23 8.062 12.991 8.066 9.875 14.203 13.827 19.361 10.394 16.216 8.559 14.159 9.947 9.677 6.983 14.731 4.036 19.11 6.603 19.11 2.775 14.736 .211 4.794 6.008 4.787 11.223 0 14.465 0 25.257 4.787 28.499 4.794 33.714 14.414 40 14.414 35.981 8.069 31.803 8.064 28.601 11.012 26.605 13.023 28.072 13.023 30.557 16.3 32.798 16.3 28.275 21.569 25.088 21.628 16.667 25.178 14.599 27.063 16.076 27.063 18.514 24.831 20.043 24.831 20.063 24.831 23.837 28.848 21.148 31.919 23.146 34.724 21.309 30.34 18.306 30.34 16.466 33.5 14.329 36.723 16.511 36.723 23.772 31.939 27.012 31.934 30.127 25.797 26.173 20.639 29.584 23.784 31.416 25.841 30.055 30.323 33.019 25.269 35.966 20.89 33.399 20.89 37.225 25.264 39.789 35.206 33.995 35.213 28.779 40 25.537 40 14.743"
       id="polygon247" />
    <text
       xml:space="preserve"
       style="font-weight:bold;font-size:43.7896px;line-height:1.2;font-family:Poppins;-inkscape-font-specification:'Poppins Bold';text-align:center;text-anchor:middle;fill:#4d4d4d;stroke:none;stroke-width:1.4"
       x="92.047699"
       y="36.880806"
       id="text529"><tspan
         sodipodi:role="line"
         id="tspan527"
         x="92.047699"
         y="36.880806"
         style="font-style:normal;font-variant:normal;font-weight:bold;font-stretch:normal;font-family:Jobless;-inkscape-font-specification:'Jobless Bold';fill:#ffffff">TofIA</tspan></text>
  </g>
</svg>
